Coordinates
version=1
nRows=8
nColumns=40
inDegrees=yes

Units are S.I. units (second, meters, Newtons, ...)
Angles are in degrees.

endheader
time	pelvis_tilt	pelvis_list	pelvis_rotation	pelvis_tx	pelvis_ty	pelvis_tz	hip_flexion_r	hip_adduction_r	hip_rotation_r	knee_angle_r	knee_angle_r_beta	ankle_angle_r	subtalar_angle_r	mtp_angle_r	hip_flexion_l	hip_adduction_l	hip_rotation_l	knee_angle_l	knee_angle_l_beta	ankle_angle_l	subtalar_angle_l	mtp_angle_l	lumbar_extension	lumbar_bending	lumbar_rotation	arm_flex_r	arm_add_r	arm_rot_r	elbow_flex_r	pro_sup_r	wrist_flex_r	wrist_dev_r	arm_flex_l	arm_add_l	arm_rot_l	elbow_flex_l	pro_sup_l	wrist_flex_l	wrist_dev_l
     19.15000000	     -4.50627671	     -4.12403769	      5.68033086	      1.05291218	      0.91536587	      0.40303111	     13.76663854	     -6.33417633	     -5.33612737	     47.96337608	     47.96337608	      6.42518839	    -10.57881623	    -19.99480224	     23.44337383	     -0.36454568	      1.74372404	     32.39273925	     32.39273925	     17.01858968	    -16.78428883	      8.43821635	     -9.54377592	      4.43032982	      3.96823843	     28.90149045	    -12.55913231	     -9.30851007	     36.09971591	     45.60618874	      0.00000000	      0.00000000	     13.44033443	    -10.88371982	     23.37507159	     27.58124651	     44.45692701	      0.00000000	      0.00000000
     19.17414286	     -4.03320476	     -4.15907073	      4.73103741	      1.05177140	      0.91295674	      0.40045276	     16.26867318	     -6.66327004	     -4.07386612	     52.88417871	     52.88417871	      4.20332363	    -11.64424088	    -20.07007067	     23.33632147	     -0.40746792	      1.35537728	     33.82768929	     33.82768929	     17.71637669	    -17.65798066	      8.14963201	     -9.95168123	      4.84062909	      3.78930428	     25.30097265	    -12.49860262	     -9.24012431	     34.37124834	     45.65274709	      0.00000000	      0.00000000	     15.61910486	    -11.12876974	     23.05874400	     29.11328777	     44.54374225	      0.00000000	      0.00000000
     19.19828571	     -3.56378324	     -4.24951893	      3.72773174	      1.05060077	      0.91065165	      0.39804928	     18.65604699	     -6.75583149	     -2.75000617	     57.33219525	     57.33219525	      2.23268414	    -12.58313994	    -19.01905922	     23.19645989	     -0.58316321	      0.76645329	     35.23757741	     35.23757741	     18.65834693	    -18.13865918	      8.23776016	    -10.38354559	      5.30930829	      3.64389721	     21.64891265	    -12.54854004	     -9.14839376	     32.23718981	     45.71454093	      0.00000000	      0.00000000	     17.98808906	    -11.47652437	     22.74142811	     30.56941378	     44.63283152	      0.00000000	      0.00000000
     19.22242857	     -3.05623532	     -4.35208581	      2.73277703	      1.04932400	      0.90883596	      0.39581286	     20.91445230	     -6.75369630	     -1.55160903	     61.45083334	     61.45083334	      2.31528487	    -11.82027408	    -12.81747488	     22.98794805	     -0.71870144	      0.30985187	     36.66929868	     36.66929868	     20.47382497	    -18.35237474	     10.79029038	    -10.90608489	      5.77404727	      3.23875539	     18.60260037	    -12.52255690	     -9.12221058	     28.85480077	     45.87302341	      0.00000000	      0.00000000	     20.26468396	    -12.17319793	     22.49863740	     32.38686415	     44.76007164	      0.00000000	      0.00000000
     19.24657143	     -2.67102679	     -4.50497342	      1.70759178	      1.04795935	      0.90753282	      0.39402676	     22.86060403	     -6.57479290	     -0.47398254	     64.25245639	     64.25245639	      1.11266339	    -12.45772740	    -11.37190569	     22.62924503	     -1.00819718	     -0.37788452	     37.50736546	     37.50736546	     21.18637697	    -18.58725128	     10.82331403	    -11.31423392	      6.23570710	      3.13403476	     14.92837506	    -12.73865078	     -9.14573889	     26.85896482	     45.93946480	      0.00000000	      0.00000000	     22.81007546	    -12.73137079	     22.00174995	     33.60645219	     44.87390731	      0.00000000	      0.00000000
     19.27071429	     -2.29069577	     -4.66290276	      0.68765673	      1.04638012	      0.90703531	      0.39269315	     24.54912054	     -6.33744896	      0.41153803	     66.19398716	     66.19398716	      1.01422424	    -12.54786992	     -8.58097004	     22.13475912	     -1.31955526	     -1.07711690	     38.07108059	     38.07108059	     21.93694030	    -18.71718604	     11.38065490	    -11.81030003	      6.65212201	      3.02803641	     11.42432935	    -12.93846440	     -9.25787903	     24.95272771	     46.02025977	      0.00000000	      0.00000000	     25.45904261	    -13.32675643	     21.22676872	     34.87713747	     45.02944762	      0.00000000	      0.00000000
     19.29485714	     -2.16283056	     -4.79428459	     -0.35950152	      1.04448146	      0.90723637	      0.39187007	     26.35862806	     -6.11542601	      1.08815648	     67.37476554	     67.37476554	      2.45885529	    -11.76134742	     -2.88003639	     21.68247323	     -1.58721974	     -1.74532527	     38.18835733	     38.18835733	     22.83907546	    -18.78781352	     12.80843317	    -12.12528244	      7.01103903	      2.53910599	      8.17970222	    -12.96641903	     -9.89398538	     23.73977350	     46.16919355	      0.00000000	      0.00000000	     27.62337576	    -14.09685231	     18.98724369	     35.88438857	     45.39546140	      0.00000000	      0.00000000
     19.31900000	     -2.13613385	     -4.95600369	     -1.44471716	      1.04230694	      0.90826097	      0.39175171	     27.78002935	     -5.75187991	      1.59845038	     67.06350489	     67.06350489	      2.51133263	    -12.21166751	     -2.82688195	     21.10530783	     -1.98040960	     -2.58316215	     37.79963992	     37.79963992	     22.99262562	    -18.85621146	     12.87665868	    -12.36511777	      7.31059376	      2.24579521	      5.07495336	    -13.08543234	     -9.98718219	     22.53662975	     46.21296966	      0.00000000	      0.00000000	     29.97052890	    -15.12150973	     18.17304167	     36.94348763	     45.53087627	      0.00000000	      0.00000000
